<?xml version="1.0" encoding="utf-8"?>
<!-- Generator: Adobe Illustrator 26.3.1, SVG Export Plug-In . SVG Version: 6.00 Build 0)  -->
<svg version="1.1" id="Layer_1" xmlns="http://www.w3.org/2000/svg" xmlns:xlink="http://www.w3.org/1999/xlink" x="0px" y="0px"
	 viewBox="0 0 368 368" style="enable-background:new 0 0 368 368;" xml:space="preserve">
<style type="text/css">
	.st0{fill:#4BA9FF;fill-opacity:0.2;}
</style>
<path class="st0" d="M184,0C82.5,0,0,82.5,0,184s82.5,184,184,184c101.5,0,184-82.5,184-184S285.5,0,184,0z M184,352
	c-92.6,0-168-75.4-168-168S91.4,16,184,16c92.6,0,168,75.4,168,168S276.6,352,184,352z"/>
<path class="st0" d="M145.9,151.6c0-13.2-10.8-24-24-24s-24,10.8-24,24c0,13.2,10.8,24,24,24S145.9,164.8,145.9,151.6z M113.9,151.6
	c0-4.4,3.6-8,8-8c4.4,0,8,3.6,8,8c0,4.4-3.6,8-8,8C117.5,159.6,113.9,156,113.9,151.6z"/>
<path class="st0" d="M273.8,151.6c0-13.2-10.8-24-24-24s-24,10.8-24,24c0,13.2,10.8,24,24,24S273.8,164.8,273.8,151.6z M241.8,151.6
	c0-4.4,3.6-8,8-8s8,3.6,8,8c0,4.4-3.6,8-8,8S241.8,156,241.8,151.6z"/>
<path class="st0" d="M184,222c-29.8,0-58.2,12.6-78,34.7c-2.9,3.3-2.7,8.4,0.6,11.3c3.3,3,8.4,2.7,11.3-0.6
	c16.7-18.6,40.8-29.3,66-29.3c25.3,0,49.4,10.7,66,29.3c1.6,1.8,3.8,2.7,6,2.7c1.9,0,3.8-0.7,5.3-2c3.3-2.9,3.6-8,0.6-11.3
	C242.2,234.7,213.8,222,184,222z"/>
</svg>
