<?xml version="1.0" encoding="utf-8"?>
<!-- Generator: Adobe Illustrator 26.3.1, SVG Export Plug-In . SVG Version: 6.00 Build 0)  -->
<svg version="1.1" id="Layer_1" xmlns="http://www.w3.org/2000/svg" xmlns:xlink="http://www.w3.org/1999/xlink" x="0px" y="0px"
	 viewBox="0 0 25 23.5" style="enable-background:new 0 0 25 23.5;" xml:space="preserve">
<style type="text/css">
	.st0{fill:#4BA9FF;}
</style>
<path class="st0" d="M8.1,14.9h13.2c0.3,0,0.6-0.2,0.7-0.5L25,4.1c0.1-0.2,0-0.5-0.1-0.6c-0.1-0.2-0.4-0.3-0.6-0.3H6.4L5.9,0.8
	C5.8,0.5,5.5,0.2,5.2,0.2H0.7C0.3,0.2,0,0.6,0,1c0,0.4,0.3,0.7,0.7,0.7h3.9l2.6,11.9c-0.8,0.3-1.3,1.1-1.3,2c0,1.2,1,2.2,2.2,2.2
	h13.2c0.4,0,0.7-0.3,0.7-0.7c0-0.4-0.3-0.7-0.7-0.7H8.1c-0.4,0-0.7-0.3-0.7-0.7C7.4,15.2,7.7,14.9,8.1,14.9z"/>
<path class="st0" d="M6.7,20.5c0,1.2,1,2.2,2.2,2.2c1.2,0,2.2-1,2.2-2.2c0-1.2-1-2.2-2.2-2.2C7.6,18.3,6.7,19.3,6.7,20.5z"/>
<path class="st0" d="M17.8,20.5c0,1.2,1,2.2,2.2,2.2c1.2,0,2.2-1,2.2-2.2c0-1.2-1-2.2-2.2-2.2C18.8,18.3,17.8,19.3,17.8,20.5z"/>
</svg>
