<?xml version="1.0" encoding="utf-8"?>
<!-- Generator: Adobe Illustrator 26.3.1, SVG Export Plug-In . SVG Version: 6.00 Build 0)  -->
<svg version="1.1" id="Layer_1" xmlns="http://www.w3.org/2000/svg" xmlns:xlink="http://www.w3.org/1999/xlink" x="0px" y="0px"
	 viewBox="0 0 26 26.5" style="enable-background:new 0 0 26 26.5;" xml:space="preserve">
<style type="text/css">
	.st0{fill:#4BA9FF;}
</style>
<path class="st0" d="M25.6,24.4L22.8,18c-0.1-0.3-0.4-0.5-0.6-0.7l-4.4-2.3c-0.1-0.1-0.2,0-0.3,0c-1.2,0.9-2.7,1.4-4.2,1.4
	c-1.5,0-3-0.5-4.2-1.4c-0.1-0.1-0.2-0.1-0.3,0l-4.4,2.3c-0.3,0.1-0.5,0.4-0.6,0.7l-2.8,6.4c-0.2,0.4-0.2,0.9,0.1,1.3
	c0.3,0.4,0.7,0.6,1.2,0.6h22.2c0.5,0,0.9-0.2,1.2-0.6C25.8,25.4,25.8,24.8,25.6,24.4z"/>
<path class="st0" d="M13.3,15c3.1,0,5.6-2.9,5.6-6.6c0-5-2.5-6.6-5.6-6.6c-3.1,0-5.6,1.5-5.6,6.6C7.6,12.1,10.2,15,13.3,15z"/>
</svg>
